<svg width="100%" height="100%" viewBox="0 0 90 52" version="1.1" xmlns="http://www.w3.org/2000/svg" xmlns:xlink="http://www.w3.org/1999/xlink" xml:space="preserve" xmlns:serif="http://www.serif.com/" style="fill-rule:evenodd;clip-rule:evenodd;stroke-linejoin:round;stroke-miterlimit:2;"><g id="g923"><path id="path844" d="M59.166,22.5c-0.6,0.4 -1.5,0.7 -2.6,0.7c-1.7,0 -3.3,-0.2 -4.9,-0.7c-0.4,-0.1 -0.7,-0.2 -0.9,-0.2c-0.3,-0 -0.4,0.2 -0.4,0.6l-0,1c-0,0.3 0.1,0.5 0.2,0.7c0.1,0.1 0.3,0.3 0.6,0.4c1.6,0.7 3.4,1 5.4,1c2.1,0 3.7,-0.5 5,-1.5c1.3,-1 1.9,-2.3 1.9,-4c-0,-1.2 -0.3,-2.1 -0.9,-2.9c-0.6,-0.7 -1.6,-1.4 -3,-1.9l-2.8,-1.1c-1.1,-0.4 -1.9,-0.8 -2.2,-1.2c-0.4,-0.4 -0.6,-0.8 -0.6,-1.5c-0,-1.5 1.1,-2.3 3.4,-2.3c1.3,0 2.6,0.2 3.8,0.6c0.4,0.1 0.7,0.2 0.8,0.2c0.3,0 0.5,-0.2 0.5,-0.6l-0,-1c-0,-0.3 -0.1,-0.5 -0.2,-0.7c-0.1,-0.2 -0.3,-0.3 -0.6,-0.4c-1.5,-0.5 -3,-0.8 -4.5,-0.8c-1.9,0 -3.5,0.5 -4.7,1.4c-1.2,0.9 -1.8,2.2 -1.8,3.7c-0,2.3 1.3,4 3.9,5l3,1.1c1,0.4 1.6,0.7 2,1.1c0.4,0.4 0.5,0.8 0.5,1.4c-0,0.8 -0.3,1.5 -0.9,1.9Z" style="fill:#fff;fill-rule:nonzero;"/><path id="path855" d="M43.466,8.1l-0,13.3c-1.7,1.1 -3.4,1.7 -5.1,1.7c-1.1,0 -1.9,-0.3 -2.4,-0.9c-0.5,-0.6 -0.7,-1.5 -0.7,-2.8l-0,-11.3c-0,-0.5 -0.2,-0.7 -0.7,-0.7l-2.1,0c-0.5,0 -0.7,0.2 -0.7,0.7l-0,12.4c-0,1.7 0.4,3.1 1.3,4c0.9,0.9 2.2,1.4 3.9,1.4c2.3,0 4.6,-0.8 6.8,-2.4l0.2,1.2c-0,0.3 0.1,0.4 0.3,0.5c0.1,0.1 0.3,0.1 0.6,0.1l1.5,0c0.5,0 0.7,-0.2 0.7,-0.7l-0,-16.5c-0,-0.5 -0.2,-0.7 -0.7,-0.7l-2.1,0c-0.6,0 -0.8,0.3 -0.8,0.7Z" style="fill:#fff;fill-rule:nonzero;"/><path id="path866" d="M24.466,25.4l2.1,-0c0.5,-0 0.7,-0.2 0.7,-0.7l-0,-12.5c-0,-1.7 -0.4,-3 -1.3,-3.9c-0.9,-0.9 -2.1,-1.4 -3.8,-1.4c-2.3,0 -4.7,0.8 -7,2.5c-0.8,-1.7 -2.3,-2.5 -4.5,-2.5c-2.2,0 -4.4,0.8 -6.6,2.3l-0.2,-1.1c-0,-0.3 -0.1,-0.4 -0.3,-0.5c-0.1,-0.1 -0.3,-0.1 -0.5,-0.1l-1.6,-0c-0.5,-0 -0.7,0.2 -0.7,0.7l-0,16.6c-0,0.5 0.2,0.7 0.7,0.7l2.1,-0c0.5,-0 0.7,-0.2 0.7,-0.7l-0,-13.5c1.7,-1 3.4,-1.6 5.2,-1.6c1,-0 1.7,0.3 2.1,0.9c0.4,0.6 0.7,1.4 0.7,2.6l-0,11.5c-0,0.5 0.2,0.7 0.7,0.7l2.1,0c0.5,0 0.7,-0.2 0.7,-0.7l-0,-13.4c1.8,-1.1 3.5,-1.6 5.2,-1.6c1,-0 1.7,0.3 2.1,0.9c0.4,0.6 0.7,1.4 0.7,2.6l-0,11.5c-0,0.5 0.2,0.7 0.7,0.7Z" style="fill:#fff;fill-rule:nonzero;"/><path id="path877" d="M78.966,38.7c-10.9,4.6 -22.8,6.9 -33.6,6.9c-16,0 -31.5,-4.4 -44,-11.7c-0.2,-0.1 -0.4,-0.2 -0.6,-0.2c-0.7,0 -1.1,0.8 -0.4,1.5c11.6,10.5 27,16.8 44,16.8c12.2,0 26.3,-3.8 36,-11c1.7,-1.2 0.3,-3 -1.4,-2.3Z" style="fill:#fff;fill-rule:nonzero;"/><path id="path888" d="M78.666,11.4c0.9,-1 2.3,-1.5 4.3,-1.5c1,-0 2,0.1 2.9,0.4c0.3,0.1 0.4,0.1 0.6,0.1c0.3,-0 0.5,-0.2 0.5,-0.7l-0,-1c-0,-0.3 -0.1,-0.6 -0.2,-0.7c-0.1,-0.1 -0.3,-0.3 -0.5,-0.4c-1.3,-0.3 -2.6,-0.6 -3.8,-0.6c-2.8,-0 -4.9,0.8 -6.5,2.5c-1.5,1.6 -2.3,4 -2.3,7c-0,3 0.7,5.3 2.2,6.9c1.5,1.6 3.6,2.4 6.4,2.4c1.5,0 2.9,-0.2 4,-0.7c0.3,-0.1 0.5,-0.2 0.6,-0.4c0.1,-0.1 0.1,-0.4 0.1,-0.7l-0,-1c-0,-0.5 -0.2,-0.7 -0.5,-0.7c-0.1,-0 -0.3,-0 -0.5,0.1c-1.1,0.3 -2.2,0.5 -3.2,0.5c-1.9,-0 -3.3,-0.5 -4.2,-1.5c-0.9,-1 -1.3,-2.6 -1.3,-4.7l-0,-0.5c0.1,-2.2 0.5,-3.8 1.4,-4.8Z" style="fill:#fff;fill-rule:nonzero;"/><path id="path899" d="M83.166,48.1c5.2,-4.4 6.6,-13.5 5.5,-14.9c-0.5,-0.6 -2.9,-1.2 -5.9,-1.2c-3.2,0 -7,0.7 -9.9,2.7c-0.9,0.6 -0.7,1.4 0.2,1.3c3.1,-0.4 10.1,-1.2 11.4,0.4c1.2,1.6 -1.4,8.2 -2.6,11.1c-0.3,0.9 0.4,1.2 1.3,0.6Z" style="fill:#fff;fill-rule:nonzero;"/><path id="path910" d="M69.266,7.4l-2.1,-0c-0.5,-0 -0.7,0.2 -0.7,0.7l-0,16.6c-0,0.5 0.2,0.7 0.7,0.7l2.1,0c0.5,0 0.7,-0.2 0.7,-0.7l-0,-16.6c-0,-0.4 -0.2,-0.7 -0.7,-0.7Z" style="fill:#fff;fill-rule:nonzero;"/><path id="path921" d="M69.866,0.6c-0.4,-0.4 -1,-0.6 -1.7,-0.6c-0.7,0 -1.2,0.2 -1.6,0.6c-0.4,0.4 -0.6,0.9 -0.6,1.5c-0,0.6 0.2,1.2 0.6,1.5c0.4,0.4 0.9,0.6 1.6,0.6c0.7,0 1.2,-0.2 1.6,-0.6c0.4,-0.4 0.6,-0.9 0.6,-1.5c-0,-0.6 -0.1,-1.2 -0.5,-1.5Z" style="fill:#fff;fill-rule:nonzero;"/></g></svg>