<?xml version="1.0" encoding="UTF-8" standalone="no"?><!DOCTYPE svg PUBLIC "-//W3C//DTD SVG 1.1//EN" "http://www.w3.org/Graphics/SVG/1.1/DTD/svg11.dtd"><svg width="100%" height="100%" viewBox="0 0 438 440" version="1.1" xmlns="http://www.w3.org/2000/svg" xmlns:xlink="http://www.w3.org/1999/xlink" xml:space="preserve" xmlns:serif="http://www.serif.com/" style="fill-rule:evenodd;clip-rule:evenodd;stroke-miterlimit:10;"><path d="M95.469,392.113c-94.767,-68.476 -116.341,-201.133 -48.188,-296.3c68.149,-95.165 200.227,-116.803 294.996,-48.327c94.767,68.473 116.342,201.13 48.193,296.3c-68.154,95.165 -200.228,116.803 -295.001,48.327Z" style="fill:none;fill-rule:nonzero;stroke:#fff;stroke-width:15px;"/><path d="M294.155,320.959c13.384,-3.925 22.834,-13.445 26.701,-26.892l1.141,-3.952l0.15,-106.015c0.111,-79.393 0.004,-106.509 -0.437,-107.989c-0.464,-1.569 -1.2,-2.885 -2.163,-3.925c-1.417,-0.873 -3.12,-1.333 -5.05,-1.33c-1.33,0 -5.951,0.641 -10.261,1.425c-19.069,3.472 -131.468,25.858 -133.388,26.568c-2.97,1.098 -5.912,3.707 -7.308,6.476l-1.183,2.346c-0,0 -0.559,166.171 -1.42,168.041c-1.309,2.847 -4.216,5.544 -6.896,6.403c-1.27,0.409 -6.289,1.535 -11.161,2.503c-22.552,4.488 -30.927,7.721 -38.012,14.677c-4.024,3.949 -7.004,9.341 -8.292,14.998c-1.232,5.408 -0.82,13.5 0.935,18.421c1.839,5.146 4.799,9.541 8.669,12.999c3.518,2.711 7.671,4.729 12.34,5.927c10.323,2.643 29.65,-0.297 39.53,-6.012c4.132,-2.391 9.447,-7.403 12.211,-11.526c1.096,-1.633 2.74,-4.917 3.661,-7.304c3.218,-8.358 3.319,-157.221 3.73,-159.096c0.698,-3.182 2.873,-5.511 5.87,-6.302c2.701,-0.709 110.93,-22.107 113.977,-22.534c2.68,-0.372 5.21,0.491 6.592,2.193c0.82,0.44 1.512,1.033 1.997,1.763c0.879,1.309 0.932,3.897 1.063,51.028c0.15,54.247 0.217,52.975 -2.732,56.399c-2.146,2.489 -4.822,3.454 -15.823,5.698c-16.737,3.417 -22.464,5.04 -28.875,8.167c-8.003,3.911 -12.448,8.194 -15.883,15.308c-2.429,5.033 -3.336,8.805 -3.329,13.813c0.014,8.959 3.105,15.956 10.075,22.807c0.643,0.631 1.273,1.218 1.909,1.77c3.511,2.715 7.092,4.352 11.594,5.389c6.79,1.563 20.61,0.534 30.068,-2.242Z" style="fill:#fff;fill-rule:nonzero;"/></svg>