<svg width="100%" height="100%" viewBox="0 0 512 512" version="1.1" xmlns="http://www.w3.org/2000/svg" xmlns:xlink="http://www.w3.org/1999/xlink" xml:space="preserve" xmlns:serif="http://www.serif.com/" style="fill-rule:evenodd;clip-rule:evenodd;stroke-linejoin:round;stroke-miterlimit:2;"><g><path d="M406.4,0l-300.8,0c-57.6,0 -105.6,47.4 -105.6,105.6l-0,300.8c-0,57.6 47.3,105.6 105.6,105.6l300.8,0c58.2,0 105.6,-47.4 105.6,-105.6l0,-300.8c0,-57.6 -47.4,-105.6 -105.6,-105.6Zm-142.4,337.3l-26.2,0l0,59.5c0,7.7 -6.4,13.7 -13.8,13.7l-82.2,0l0,-309l139.8,0c67.9,0 120.4,35.1 120.4,115.1c0,75.8 -58.3,120.6 -137.7,120.6l-0.3,0.1Z" style="fill:#fff;fill-rule:nonzero;"/></g>
</svg>