<svg width="100%" height="100%" viewBox="0 0 800 800" version="1.1" xmlns="http://www.w3.org/2000/svg" xmlns:xlink="http://www.w3.org/1999/xlink" xml:space="preserve" xmlns:serif="http://www.serif.com/" style="fill-rule:evenodd;clip-rule:evenodd;stroke-linejoin:round;stroke-miterlimit:2;"><g id="XMLID_526_"><path id="XMLID_527_" d="M38.645,557.056c1.651,-0 3.048,-1.357 3.286,-3.269l8.973,-71.123l-8.947,-72.741c-0.266,-1.912 -1.661,-3.28 -3.312,-3.28c-1.693,-0 -3.136,1.397 -3.36,3.28l-7.842,72.741l7.842,71.099c0.224,1.909 1.667,3.293 3.36,3.293Z" style="fill:#fff;fill-rule:nonzero;"/><path id="XMLID_530_" d="M9.059,530.005c1.621,0 2.936,-1.261 3.173,-3.146l6.955,-44.198l-6.955,-45.024c-0.24,-1.826 -1.552,-3.146 -3.173,-3.146c-1.694,-0 -3.006,1.32 -3.246,3.173l-5.813,45l5.813,44.184c0.24,1.869 1.552,3.157 3.246,3.157Z" style="fill:#fff;fill-rule:nonzero;"/><path id="XMLID_531_" d="M74.032,396.384c-0.213,-2.312 -1.907,-4 -4.008,-4c-2.085,0 -3.781,1.688 -3.976,4l-7.496,86.28l7.496,83.131c0.195,2.298 1.891,3.965 3.976,3.965c2.101,0 3.795,-1.667 4.008,-3.965l8.48,-83.131l-8.48,-86.28Z" style="fill:#fff;fill-rule:nonzero;"/><path id="XMLID_532_" d="M101.739,573.109c2.458,0 4.448,-2.024 4.688,-4.669l8.013,-85.749l-8.013,-88.688c-0.24,-2.664 -2.23,-4.664 -4.688,-4.664c-2.494,-0 -4.512,2.002 -4.683,4.677l-7.083,88.675l7.083,85.749c0.171,2.648 2.189,4.669 4.683,4.669Z" style="fill:#fff;fill-rule:nonzero;"/><path id="XMLID_533_" d="M133.672,574.501c2.864,0 5.163,-2.293 5.4,-5.362l-0.027,0.021l7.547,-86.469l-7.547,-82.286c-0.213,-3.018 -2.509,-5.346 -5.376,-5.346c-2.906,-0 -5.192,2.328 -5.365,5.37l-6.672,82.264l6.672,86.448c0.176,3.067 2.461,5.36 5.368,5.36Z" style="fill:#fff;fill-rule:nonzero;"/><path id="XMLID_534_" d="M179.019,482.712l-7.08,-133.792c-0.198,-3.392 -2.84,-6.096 -6.083,-6.096c-3.219,0 -5.853,2.701 -6.051,6.096l-6.266,133.792l6.266,86.448c0.198,3.408 2.835,6.075 6.051,6.075c3.245,-0 5.885,-2.667 6.083,-6.075l-0,0.024l7.08,-86.472Z" style="fill:#fff;fill-rule:nonzero;"/><path id="XMLID_535_" d="M198.363,575.376c3.57,0 6.533,-2.963 6.701,-6.744l0,0.056l6.619,-85.955l-6.619,-164.416c-0.168,-3.781 -3.131,-6.744 -6.701,-6.744c-3.654,0 -6.59,2.963 -6.787,6.744l-5.827,164.416l5.854,85.926c0.17,3.754 3.106,6.717 6.76,6.717Z" style="fill:#fff;fill-rule:nonzero;"/><path id="XMLID_536_" d="M231.053,297.16c-4.021,-0 -7.266,3.301 -7.432,7.464l-5.421,178.136l5.421,85.024c0.168,4.141 3.411,7.421 7.432,7.421c4.011,0 7.28,-3.253 7.422,-7.434l-0,0.042l6.152,-85.053l-6.152,-178.136c-0.142,-4.189 -3.414,-7.464 -7.422,-7.464Z" style="fill:#fff;fill-rule:nonzero;"/><path id="XMLID_782_" d="M264.027,575.376c4.416,0 7.933,-3.563 8.098,-8.149l0,0.05l5.688,-84.514l-5.688,-184.12c-0.168,-4.571 -3.682,-8.15 -8.098,-8.15c-4.443,0 -8.014,3.579 -8.083,8.15l-5.109,184.12l5.109,84.514c0.069,4.536 3.64,8.099 8.083,8.099Z" style="fill:#fff;fill-rule:nonzero;"/><path id="XMLID_783_" d="M297.272,575.291c4.765,-0 8.632,-3.902 8.776,-8.848l0,0.077l5.235,-83.744l-5.235,-179.437c-0.144,-4.944 -4.011,-8.83 -8.776,-8.83c-4.8,0 -8.667,3.883 -8.808,8.83l-4.6,179.437l4.629,83.704c0.112,4.909 3.979,8.811 8.779,8.811Z" style="fill:#fff;fill-rule:nonzero;"/><path id="XMLID_784_" d="M344.957,482.776l-4.738,-172.896c-0.115,-5.333 -4.291,-9.523 -9.47,-9.523c-5.192,0 -9.37,4.19 -9.48,9.558l-4.25,172.861l4.25,83.195c0.11,5.29 4.286,9.482 9.48,9.482c5.176,0 9.355,-4.192 9.47,-9.56l-0,0.078l4.738,-83.195Z" style="fill:#fff;fill-rule:nonzero;"/><path id="XMLID_785_" d="M364.485,575.608c5.504,-0 10.062,-4.579 10.147,-10.208l-0,0.045l4.301,-82.624l-4.301,-205.741c-0.083,-5.651 -4.64,-10.221 -10.147,-10.221c-5.501,-0 -10.045,4.592 -10.157,10.25l-3.824,205.63l3.824,82.709c0.112,5.581 4.656,10.16 10.157,10.16Z" style="fill:#fff;fill-rule:nonzero;"/><path id="XMLID_786_" d="M398.109,247.504c-5.944,-0 -10.765,4.931 -10.864,10.941l-4.445,224.403l4.472,81.403c0.072,5.933 4.896,10.848 10.837,10.848c5.854,-0 10.766,-4.918 10.792,-10.947l0,0.099l4.854,-81.403l-4.854,-224.403c-0.026,-6.032 -4.938,-10.941 -10.792,-10.941Z" style="fill:#fff;fill-rule:nonzero;"/><path id="XMLID_787_" d="M428.853,575.685c0.24,0.022 270.995,0.15 272.734,0.15c54.36,-0 98.41,-44.592 98.41,-99.619c0,-54.997 -44.053,-99.597 -98.41,-99.597c-13.491,-0 -26.344,2.757 -38.067,7.752c-7.792,-89.79 -82.173,-160.206 -172.912,-160.206c-22.181,0 -43.811,4.432 -62.915,11.918c-7.434,2.906 -9.424,5.904 -9.482,11.712l-0,316.104c0.085,6.106 4.741,11.181 10.642,11.786Z" style="fill:#fff;fill-rule:nonzero;"/></g></svg>