<svg width="100%" height="100%" viewBox="0 0 24 24" version="1.1" xmlns="http://www.w3.org/2000/svg" xmlns:xlink="http://www.w3.org/1999/xlink" xml:space="preserve" xmlns:serif="http://www.serif.com/" style="fill-rule:evenodd;clip-rule:evenodd;stroke-linejoin:round;stroke-miterlimit:2;"><path d="M19.098,10.638c-3.868,-2.297 -10.248,-2.508 -13.941,-1.387c-0.593,0.18 -1.22,-0.155 -1.399,-0.748c-0.18,-0.593 0.154,-1.22 0.748,-1.4c4.239,-1.287 11.285,-1.038 15.738,1.605c0.533,0.317 0.708,1.005 0.392,1.538c-0.316,0.533 -1.005,0.709 -1.538,0.392Zm-0.126,3.403c-0.272,0.44 -0.847,0.578 -1.287,0.308c-3.225,-1.982 -8.142,-2.557 -11.958,-1.399c-0.494,0.15 -1.017,-0.129 -1.167,-0.623c-0.149,-0.495 0.13,-1.016 0.624,-1.167c4.358,-1.322 9.776,-0.682 13.48,1.595c0.44,0.27 0.578,0.847 0.308,1.286Zm-1.469,3.267c-0.215,0.354 -0.676,0.465 -1.028,0.249c-2.818,-1.722 -6.365,-2.111 -10.542,-1.157c-0.402,0.092 -0.803,-0.16 -0.895,-0.562c-0.092,-0.403 0.159,-0.804 0.562,-0.896c4.571,-1.045 8.492,-0.595 11.655,1.338c0.353,0.215 0.464,0.676 0.248,1.028Zm-5.503,-17.308c-6.627,0 -12,5.373 -12,12c-0,6.628 5.373,12 12,12c6.628,0 12,-5.372 12,-12c-0,-6.627 -5.372,-12 -12,-12Z" style="fill:#fff;"/></svg>