<svg width="100%" height="100%" viewBox="0 0 800 800" version="1.1" xmlns="http://www.w3.org/2000/svg" xmlns:xlink="http://www.w3.org/1999/xlink" xml:space="preserve" xmlns:serif="http://www.serif.com/" style="fill-rule:evenodd;clip-rule:evenodd;stroke-linejoin:round;stroke-miterlimit:2;"><g><path d="M633.85,116.951l-467.7,-0c-91.762,-0 -166.15,74.387 -166.15,166.149l-0,233.801c-0,91.762 74.388,166.15 166.15,166.15l467.7,0c91.762,0 166.15,-74.388 166.15,-166.15l0,-233.801c0,-91.762 -74.388,-166.149 -166.15,-166.149Zm-112.366,294.425l-218.758,104.335c-5.829,2.78 -12.563,-1.47 -12.563,-7.927l0,-215.191c0,-6.549 6.911,-10.794 12.752,-7.834l218.758,110.857c6.505,3.295 6.392,12.623 -0.189,15.76Z" style="fill:#fff;fill-rule:nonzero;"/></g></svg>