<svg width="100%" height="100%" viewBox="0 0 176 176" version="1.1" xmlns="http://www.w3.org/2000/svg" xmlns:xlink="http://www.w3.org/1999/xlink" xml:space="preserve" xmlns:serif="http://www.serif.com/" style="fill-rule:evenodd;clip-rule:evenodd;stroke-linejoin:round;stroke-miterlimit:2;"><g id="XMLID_167_"><circle id="XMLID_791_" cx="88" cy="88" r="88" style="fill:#fff;"/><path id="XMLID_42_" d="M88,46c23.1,0 42,18.8 42,42c0,23.2 -18.8,42 -42,42c-23.2,0 -42,-18.8 -42,-42c0,-23.2 18.9,-42 42,-42m0,-4c-25.4,0 -46,20.6 -46,46c0,25.4 20.6,46 46,46c25.4,0 46,-20.6 46,-46c0,-25.4 -20.6,-46 -46,-46Z" style="fill-rule:nonzero;"/><path id="XMLID_274_" d="M72,111l39,-24l-39,-22l0,46Z" style="fill-rule:nonzero;"/></g></svg>